:SAMPLES-PER-SECOND 30
:FULLY-SPECIFIED
:DEGREES
569
root  -32.8327 35.0482 4.24821 -165.077 85.5156 -172.637
RightUpLeg  -3.57485 -7.0469 0.254393
RightLeg  0.558802 11.7541 -0.634537
RightFoot  6.3391 -0.0354649 1.44577
RightToes  -34.3927 -0.177798 -0.274
Spine  -3.26099 0.190584 -0.763333
Spine1  -6.38108 0.601268 -0.573531
HEad  -49.0102 -32.5577 18.8236
LeftShoulder1  -1.94126e-019 -3.10601e-018 -2.51263e-017
LeftArm  52.0567 -11.9119 -92.4846
LeftForeArm  119.71 -75.2548 -133.52
LeftHand  0.088554 -0.964403 -1.53137
RightShoulder  -4.96962e-017 0 -2.36833e-017
RightArm  -7.144 3.52153 78.4569
RightForeArm  66.7362 10.167 1.74164
RightHand  -0.450766 -0.304031 -10.3074
LeftUpLeg  -4.01416 6.01363 0.797912
LeftLeg  1.39039 15.1009 -0.597448
LeftFoot  7.45212 -0.137509 2.22211
LeftToes  -19.0488 1.89912e-006 4.45198e-008
570
root  -32.8484 35.0502 4.27202 -165.623 85.1974 -173.217
RightUpLeg  -3.56445 -7.38045 0.302453
RightLeg  0.487901 11.7827 -0.650592
RightFoot  6.35866 -0.0355466 1.45533
RightToes  -34.3635 -0.177768 -0.274212
Spine  -3.26868 0.417387 -0.797887
Spine1  -6.3754 1.08125 -0.656943
HEad  -51.057 -29.5646 19.4671
LeftShoulder1  -1.94126e-019 -3.10601e-018 -2.51263e-017
LeftArm  50.0896 -12.9179 -92.11
LeftForeArm  116.741 -75.9331 -130.422
LeftHand  0.0130563 -0.161315 -0.256918
RightShoulder  -4.96962e-017 0 -2.36833e-017
RightArm  -8.79492 4.29284 78.5373
RightForeArm  69.2364 8.11361 1.36741
RightHand  -0.396637 -0.617541 -9.63386
LeftUpLeg  -4.10602 5.59799 0.837173
LeftLeg  1.36694 15.197 -0.60731
LeftFoot  7.54884 -0.140766 2.26535
LeftToes  -19.1085 1.89912e-006 4.45198e-008
571
root  -32.858 35.0516 4.28876 -166.464 84.7511 -174.114
RightUpLeg  -3.50506 -7.8171 0.32702
RightLeg  0.326348 11.79 -0.684146
RightFoot  6.41818 -0.0360908 1.47017
RightToes  -34.4516 -0.17765 -0.274425
Spine  -3.29976 0.56061 -0.815189
Spine1  -6.4227 1.3887 -0.6992
HEad  -52.798 -26.8316 19.5753
LeftShoulder1  -1.94126e-019 -3.10601e-018 -2.51263e-017
LeftArm  48.7926 -13.8024 -91.8708
LeftForeArm  113.344 -76.2137 -128.519
LeftHand  0.00407423 0.365539 -0.141544
RightShoulder  -4.96962e-017 0 -2.36833e-017
RightArm  -9.41417 4.95764 78.5044
RightForeArm  70.9968 6.41448 1.06185
RightHand  -0.316706 -1.46204 -9.2322
LeftUpLeg  -4.21457 5.20998 0.85154
LeftLeg  1.31735 15.143 -0.618171
LeftFoot  7.68754 -0.143542 2.29776
LeftToes  -19.2872 1.89912e-006 4.45198e-008
572
root  -32.8662 35.0519 4.29423 -167.027 84.1015 -174.84
RightUpLeg  -3.51011 -8.32701 0.383191
RightLeg  0.134111 11.661 -0.715839
RightFoot  6.45397 -0.0351776 1.46287
RightToes  -34.4138 -0.177452 -0.27464
Spine  -3.32934 0.676528 -0.894741
Spine1  -6.48617 1.61005 -0.860565
HEad  -54.8576 -24.9129 20.0678
LeftShoulder1  -1.94126e-019 -3.10601e-018 -2.51263e-017
LeftArm  50.9586 -15.4102 -91.7439
LeftForeArm  113.562 -75.9545 -129.624
LeftHand  0.0316073 0.336212 -0.776168
RightShoulder  -4.96962e-017 0 -2.36833e-017
RightArm  -10.6269 5.23844 78.3693
RightForeArm  71.7211 5.40631 0.882379
RightHand  -0.261007 -2.15009 -9.08884
LeftUpLeg  -4.44597 4.91455 0.87425
LeftLeg  1.24745 14.8134 -0.622917
LeftFoot  7.78054 -0.143689 2.27432
LeftToes  -19.3219 1.89912e-006 4.45198e-008
573
root  -32.8626 35.0482 4.2976 -167.736 83.3345 -175.7
RightUpLeg  -3.47979 -8.88062 0.421352
RightLeg  -0.0270415 11.4738 -0.73677
RightFoot  6.41699 -0.0327172 1.43213
RightToes  -34.401 -0.177184 -0.274855
Spine  -3.31949 0.736691 -1.01961
Spine1  -6.49051 1.6921 -1.11184
HEad  -56.5904 -23.6323 20.4624
LeftShoulder1  -1.94126e-019 -3.10601e-018 -2.51263e-017
LeftArm  56.0383 -17.2683 -92.0575
LeftForeArm  117.109 -75.1232 -133.433
LeftHand  0.24906 -0.961155 -4.48157
RightShoulder  -4.96962e-017 0 -2.36833e-017
RightArm  -11.2536 5.50866 78.3342
RightForeArm  71.6726 4.48531 0.72003
RightHand  -0.237753 -2.59445 -9.49623
LeftUpLeg  -4.63613 4.58013 0.883702
LeftLeg  1.12708 14.4126 -0.636427
LeftFoot  7.90599 -0.144503 2.24458
LeftToes  -19.5435 1.89912e-006 4.45198e-008
574
root  -32.8505 35.0473 4.2968 -168.6 82.4328 -176.717
RightUpLeg  -3.45732 -9.53936 0.427228
RightLeg  -0.111583 11.2292 -0.737882
RightFoot  6.34517 -0.0292801 1.38608
RightToes  -34.3519 -0.176856 -0.275072
Spine  -3.29302 0.605844 -1.09287
Spine1  -6.46881 1.3746 -1.25464
HEad  -57.7438 -22.3276 20.3051
LeftShoulder1  -1.94126e-019 -3.10601e-018 -2.51263e-017
LeftArm  62.4116 -18.4306 -92.58
LeftForeArm  123.607 -73.6797 -138.984
LeftHand  0.349132 -0.953483 -6.32562
RightShoulder  -4.96962e-017 0 -2.36833e-017
RightArm  -9.9653 5.77273 78.4244
RightForeArm  70.8196 4.67461 0.755081
RightHand  -0.259311 -2.25043 -9.30375
LeftUpLeg  -4.79652 3.94968 0.870696
LeftLeg  0.94111 14.1475 -0.670488
LeftFoot  8.1048 -0.147869 2.24868
LeftToes  -19.7198 1.89912e-006 4.45198e-008
575
root  -32.8262 35.0465 4.29511 -169.207 81.6505 -177.446
RightUpLeg  -3.46758 -10.0397 0.431425
RightLeg  -0.0488642 10.9257 -0.7063
RightFoot  6.18056 -0.0244985 1.31945
RightToes  -34.1401 -0.176477 -0.275289
Spine  -3.24172 0.331214 -1.05792
Spine1  -6.37248 0.808176 -1.17701
HEad  -58.6175 -20.5566 19.4845
LeftShoulder1  -1.94126e-019 -3.10601e-018 -2.51263e-017
LeftArm  63.2114 -18.0195 -92.1083
LeftForeArm  128.524 -72.6423 -142.35
LeftHand  0.193905 -0.443277 -3.83836
RightShoulder  -4.96962e-017 0 -2.36833e-017
RightArm  -9.31126 5.24077 78.4787
RightForeArm  71.5385 7.9657 1.33798
RightHand  -0.305642 -1.26732 -8.50329
LeftUpLeg  -4.85154 3.49601 0.859237
LeftLeg  0.680022 13.8463 -0.719097
LeftFoot  8.24664 -0.149567 2.23607
LeftToes  -19.6191 1.89912e-006 4.45198e-008
576
root  -32.804 35.0447 4.28837 -169.444 81.223 -177.731
RightUpLeg  -3.56898 -10.2169 0.429674
RightLeg  0.242158 10.6975 -0.637461
RightFoot  6.00894 -0.0206833 1.26524
RightToes  -34.0334 -0.176058 -0.275506
Spine  -3.25779 0.121279 -0.991144
Spine1  -6.3875 0.416348 -1.04172
HEad  -58.8605 -18.8474 18.3892
LeftShoulder1  -1.94126e-019 -3.10601e-018 -2.51263e-017
LeftArm  58.2924 -16.8682 -91.4316
LeftForeArm  122.454 -73.3099 -139.744
LeftHand  0.440568 -1.03783 -7.88709
RightShoulder  -4.96962e-017 0 -2.36833e-017
RightArm  -7.32172 4.69038 78.6098
RightForeArm  71.0265 10.7363 1.83602
RightHand  -0.474948 0.338462 -9.69776
LeftUpLeg  -4.79195 3.37837 0.857241
LeftLeg  0.412952 13.5345 -0.765855
LeftFoot  8.40569 -0.150909 2.23081
LeftToes  -19.4432 1.89912e-006 4.45198e-008
577
root  -32.7829 35.0427 4.28643 -169.456 81.2761 -177.698
RightUpLeg  -3.69582 -9.95219 0.421361
RightLeg  0.662879 10.4896 -0.548315
RightFoot  5.75852 -0.0162053 1.20017
RightToes  -33.7021 -0.175606 -0.275724
Spine  -3.26114 0.154497 -0.992073
Spine1  -6.37744 0.516091 -1.0682
HEad  -58.7881 -17.8799 17.907
LeftShoulder1  -1.94126e-019 -3.10601e-018 -2.51263e-017
LeftArm  54.3037 -16.4137 -91.0589
LeftForeArm  112.23 -75.1211 -132.468
LeftHand  0.562443 -1.54756 -9.29148
RightShoulder  -4.96962e-017 0 -2.36833e-017
RightArm  -5.16083 4.22313 78.5577
RightForeArm  67.9919 12.7504 2.21007
RightHand  -0.56364 1.35948 -9.83349
LeftUpLeg  -4.62096 3.62419 0.860601
LeftLeg  0.228791 13.3383 -0.797556
LeftFoot  8.51011 -0.151915 2.22952
LeftToes  -19.7449 1.89912e-006 4.45198e-008
578
root  -32.7645 35.0422 4.29665 -169.168 81.5555 -177.33
RightUpLeg  -3.80895 -9.65912 0.455748
RightLeg  1.03298 10.4684 -0.479722
RightFoot  5.61926 -0.0144778 1.17296
RightToes  -33.6679 -0.175133 -0.275942
Spine  -3.24702 0.329965 -0.999186
Spine1  -6.33759 0.878223 -1.11532
HEad  -58.7515 -17.5889 17.9644
LeftShoulder1  -1.94126e-019 -3.10601e-018 -2.51263e-017
LeftArm  52.892 -16.4219 -90.7895
LeftForeArm  107.905 -76.2296 -127.207
LeftHand  0.315217 -0.242206 -6.51536
RightShoulder  -4.96962e-017 0 -2.36833e-017
RightArm  -5.28388 4.39911 78.7376
RightForeArm  66.1414 13.3823 2.33168
RightHand  -0.459626 0.626053 -8.96364
LeftUpLeg  -4.48695 3.62339 0.914371
LeftLeg  0.253047 13.6107 -0.807811
LeftFoot  8.40623 -0.153375 2.24834
LeftToes  -19.3955 1.89912e-006 4.45198e-008
579
root  -32.7425 35.0454 4.30044 -169.177 81.7864 -177.225
RightUpLeg  -3.81574 -9.47294 0.43459
RightLeg  1.29616 10.5163 -0.433696
RightFoot  5.54927 -0.0141345 1.16409
RightToes  -33.6444 -0.174648 -0.27616
Spine  -3.22695 0.52631 -1.04375
Spine1  -6.29556 1.26436 -1.23004
HEad  -58.7651 -17.4324 18.1745
LeftShoulder1  -1.94126e-019 -3.10601e-018 -2.51263e-017
LeftArm  53.5486 -17.0486 -90.7006
LeftForeArm  108.443 -76.3366 -126.863
LeftHand  0.287232 -0.0528356 -6.16801
RightShoulder  -4.96962e-017 0 -2.36833e-017
RightArm  -7.78574 5.14561 79.3458
RightForeArm  68.4731 11.9774 2.06963
RightHand  -0.461318 0.260671 -9.54429
LeftUpLeg  -4.41557 3.47279 0.926615
LeftLeg  0.471084 13.9687 -0.77587
LeftFoot  8.3096 -0.153854 2.27929
LeftToes  -19.318 1.89912e-006 4.45198e-008
580
root  -32.7203 35.0501 4.30439 -169.195 81.8314 -177.229
RightUpLeg  -3.85191 -9.46625 0.435769
RightLeg  1.44833 10.5517 -0.407189
RightFoot  5.51136 -0.0141633 1.15909
RightToes  -33.564 -0.174159 -0.276378
Spine  -3.22972 0.660934 -1.0622
Spine1  -6.30946 1.51467 -1.27396
HEad  -58.8293 -17.1504 18.1227
LeftShoulder1  -1.94126e-019 -3.10601e-018 -2.51263e-017
LeftArm  56.5763 -18.2067 -90.6151
LeftForeArm  114.028 -75.0288 -133.145
LeftHand  0.451305 -1.04244 -8.07476
RightShoulder  -4.96962e-017 0 -2.36833e-017
RightArm  -8.61889 5.62815 79.6921
RightForeArm  70.6842 10.8105 1.85021
RightHand  -0.487799 0.225563 -10.1479
LeftUpLeg  -4.52643 3.16482 0.939516
LeftLeg  0.823842 14.3001 -0.706581
LeftFoot  8.15706 -0.152727 2.28899
LeftToes  -19.1676 1.89912e-006 4.45198e-008
581
root  -32.6894 35.0516 4.30107 -169.328 81.6681 -177.394
RightUpLeg  -3.85216 -9.54672 0.430619
RightLeg  1.52916 10.4667 -0.389238
RightFoot  5.45839 -0.013218 1.13873
RightToes  -33.5974 -0.173677 -0.276596
Spine  -3.22644 0.640451 -1.06151
Spine1  -6.317 1.44128 -1.26267
HEad  -58.9244 -16.4371 17.9822
LeftShoulder1  -1.94126e-019 -3.10601e-018 -2.51263e-017
LeftArm  60.6184 -18.9764 -90.4021
LeftForeArm  121.787 -73.0554 -140.271
LeftHand  0.418169 -0.813218 -7.77968
RightShoulder  -4.96962e-017 0 -2.36833e-017
RightArm  -7.32475 5.65192 79.8696
RightForeArm  70.0744 11.1154 1.90845
RightHand  -0.451975 0.115789 -9.58499
LeftUpLeg  -4.68926 2.97443 0.931692
LeftLeg  1.13839 14.3565 -0.631198
LeftFoot  8.05329 -0.149406 2.26683
LeftToes  -19.2382 1.89912e-006 4.45198e-008
